<?xml version="1.0" standalone="no"?><!DOCTYPE svg PUBLIC "-//W3C//DTD SVG 1.1//EN" "http://www.w3.org/Graphics/SVG/1.1/DTD/svg11.dtd"><svg t="1788876421723" class="icon" viewBox="0 0 1024 1024" version="1.1" xmlns="http://www.w3.org/2000/svg" p-id="24291" xmlns:xlink="http://www.w3.org/1999/xlink" width="200" height="200"><path d="M871.673333 770.813333l-165.933333-165.94a53.4 53.4 0 0 0-75.426667 0l-37.713333 37.713334c-21.333333 21.333333-90.413333 0.1-150.846667-60.34S360.046667 452.76 381.413333 431.4l37.713334-37.713333a53.4 53.4 0 0 0 0-75.426667l-165.94-165.933333a53.393333 53.393333 0 0 0-75.42 0l-37.713334 37.713333c-27.866667 27.866667-44.84 64.52-50.46 108.946667-5.213333 41.206667-0.406667 87.42 14.28 137.333333C133.333333 536.586667 199.773333 642 290.9 733.1S487.42 890.666667 587.653333 920.126667c36.926667 10.86 71.813333 16.32 104.146667 16.32a264.333333 264.333333 0 0 0 33.213333-2.04c44.426667-5.62 81.08-22.593333 108.946667-50.46l37.713333-37.713334a53.393333 53.393333 0 0 0 0-75.42z" fill="#5C5C66" p-id="24292"></path></svg>